# xmcd CD database file
#
# Track frame offsets:
#	150
#	30890
#	57522
#	75786
#	101324
#	137244
#	163096
#	186538
#	220309
#	255612
#	283884
#
# Disc length: 4221 seconds
#
# Revision: 0
# Processed by: cddbd v1.5.2PL0 Copyright (c) Steve Scherf et al.
# Submitted via: CDex 1.70beta2
#
DISCID=98107b0b
DTITLE=David Ephross - Ellie's Delight
DYEAR=1900
DGENRE=Jazz
TTITLE0=We Don't Have To Change At All
TTITLE1=Housekeeping
TTITLE2=Broken Oak
TTITLE3=Ephrology
TTITLE4=Ellie's Delight
TTITLE5=How I Did It
TTITLE6=Imagination
TTITLE7=This Is
TTITLE8=Quincy
TTITLE9=Noah's Paintings
TTITLE10=Coleman Trane
EXTD=
EXTT0=
EXTT1=
EXTT2=
EXTT3=
EXTT4=
EXTT5=
EXTT6=
EXTT7=
EXTT8=
EXTT9=
EXTT10=
PLAYORDER=
